<?xml version="1.0" standalone="no"?>
<!DOCTYPE svg PUBLIC "-//W3C//DTD SVG 20010904//EN"
 "http://www.w3.org/TR/2001/REC-SVG-20010904/DTD/svg10.dtd">
<svg version="1.0" xmlns="http://www.w3.org/2000/svg"
 width="260.000000pt" height="260.000000pt" viewBox="0 0 260.000000 260.000000"
 preserveAspectRatio="xMidYMid meet">
<metadata>
Created by potrace 1.11, written by Peter Selinger 2001-2013
</metadata>
<g transform="translate(0.000000,260.000000) scale(0.100000,-0.100000)"
fill="#000000" stroke="none">
<path d="M1036 2472 c-3 -3 -16 -6 -29 -8 -12 -1 -22 -3 -22 -4 0 -1 -9 -4
-20 -6 -11 -3 -24 -6 -30 -7 -5 -1 -32 -15 -59 -30 -27 -15 -50 -27 -52 -27
-14 0 -174 -161 -174 -176 0 -3 -10 -20 -23 -37 -35 -50 -45 -68 -71 -124 -14
-29 -30 -53 -35 -53 -6 0 -13 0 -16 0 -3 0 -22 -7 -42 -15 -54 -23 -81 -51
-77 -82 2 -17 -12 -46 -45 -92 -60 -82 -90 -147 -106 -226 -3 -16 -10 -46 -15
-65 -5 -19 -14 -87 -21 -150 -9 -88 -16 -119 -30 -133 -12 -11 -18 -31 -18
-60 0 -52 -16 -202 -21 -202 -3 0 -10 -41 -12 -65 0 -8 -4 -19 -8 -25 -4 -5
-6 -19 -4 -29 1 -11 0 -25 -4 -30 -9 -15 -9 -217 1 -223 4 -2 7 -13 7 -23 0
-27 37 -91 68 -118 41 -36 130 -88 233 -136 52 -23 97 -44 102 -44 4 -1 20 -8
35 -16 43 -22 244 -88 250 -82 3 3 11 1 17 -4 7 -6 30 -12 51 -15 22 -2 50 -7
64 -10 14 -3 69 -7 123 -9 l98 -3 15 28 c14 28 18 29 82 29 110 1 262 10 352
22 47 6 92 12 100 13 9 0 21 4 28 9 6 4 12 5 12 2 0 -3 19 2 42 10 24 9 50 17
59 19 9 2 25 8 35 13 62 33 87 39 123 31 37 -8 61 -7 102 6 11 4 46 46 78 93
67 101 120 156 173 180 21 9 37 23 35 30 -2 11 -191 96 -220 99 -4 1 -31 11
-59 23 l-50 22 33 34 c18 19 40 33 49 32 21 -4 80 21 110 46 28 23 33 63 13
87 -10 12 -6 18 25 34 76 40 103 99 64 141 -10 10 -24 45 -31 77 -7 32 -22 77
-34 99 -25 47 -100 128 -118 128 -8 0 -6 7 6 20 9 10 21 18 25 17 12 -3 50 24
94 68 23 22 44 40 48 40 4 0 33 20 66 45 88 67 115 137 96 253 -6 36 -8 37
-46 37 -29 0 -48 7 -67 25 -120 115 -144 134 -198 155 -68 27 -82 38 -88 71
-8 42 -39 119 -47 119 -4 0 -8 6 -8 14 0 32 -106 111 -160 118 -14 2 -29 6
-35 9 -17 9 -88 3 -190 -16 -16 -3 -70 -25 -120 -49 l-90 -44 -40 28 c-45 31
-120 69 -150 76 -11 3 -27 7 -35 9 -8 2 -15 4 -15 5 0 2 -38 11 -65 15 -14 1
-25 4 -25 5 0 5 -84 8 -89 2z"/>
</g>
</svg>
